<?xml version="1.0" standalone="no"?>
<!DOCTYPE svg PUBLIC "-//W3C//DTD SVG 20010904//EN"
 "http://www.w3.org/TR/2001/REC-SVG-20010904/DTD/svg10.dtd">
<svg version="1.0" xmlns="http://www.w3.org/2000/svg"
 width="200.000000pt" height="60.000000pt" viewBox="0 0 200.000000 60.000000"
 preserveAspectRatio="xMidYMid meet">
<metadata>
Created by potrace 1.16, written by Peter Selinger 2001-2019
</metadata>
<g transform="translate(0.000000,60.000000) scale(0.100000,-0.100000)"
fill="#000000" stroke="none">
<path d="M147 391 c-42 -43 -77 -86 -77 -94 0 -18 33 -40 44 -30 10 10 7 -6
-5 -30 -15 -28 -50 -67 -61 -67 -17 0 -7 29 17 48 30 24 32 42 5 42 -35 0 -72
-45 -68 -83 3 -30 6 -32 43 -35 55 -4 85 29 124 136 17 46 42 104 56 129 51
92 20 86 -78 -16z"/>
<path d="M1139 441 c-45 -14 -69 -31 -69 -51 0 -10 4 -20 9 -22 4 -1 -5 -32
-22 -68 -30 -64 -30 -65 -40 -37 -6 15 -17 27 -24 27 -18 0 -17 -42 2 -66 9
-12 12 -31 9 -51 -5 -26 -3 -33 10 -33 9 0 22 11 28 25 15 33 28 32 63 -5 32
-33 34 -34 55 -20 12 8 10 14 -15 40 -16 16 -23 30 -17 30 18 0 91 69 108 101
8 16 14 46 14 68 0 60 -41 83 -111 62z"/>
<path d="M258 363 c-25 -29 -82 -124 -108 -181 -19 -42 -21 -55 -11 -61 30
-19 81 20 81 61 0 10 6 18 13 18 6 0 24 7 40 14 26 14 27 14 21 -8 -9 -36 17
-51 55 -31 22 11 37 13 49 6 10 -5 24 -6 31 -2 7 5 21 6 31 4 10 -3 27 0 39 6
14 8 21 8 21 1 0 -5 9 -10 20 -10 11 0 20 5 20 12 0 6 7 3 15 -8 13 -18 16
-18 43 -3 23 13 32 14 46 4 26 -19 96 -7 127 22 l26 24 -5 -26 c-4 -25 9 -44
30 -45 17 0 78 64 78 81 0 26 -9 24 -39 -9 -14 -15 -23 -23 -18 -18 22 29 -15
92 -46 80 -10 -3 -17 -9 -17 -13 0 -4 -7 -16 -15 -27 -12 -16 -14 -16 -9 -2 7
22 -20 35 -39 19 -10 -7 -17 -7 -24 0 -12 12 -44 -1 -80 -34 l-23 -20 0 25 c0
14 9 33 21 44 27 24 52 72 44 84 -3 6 -17 10 -30 10 -25 0 -105 -81 -105 -106
0 -8 -5 -14 -12 -14 -7 0 -23 -12 -35 -27 l-23 -28 12 28 c10 23 9 30 -4 44
-23 22 -58 11 -103 -34 -20 -21 -31 -28 -24 -16 12 21 11 26 -13 49 -28 29
-44 26 -58 -11 -5 -12 -18 -25 -30 -28 -18 -5 -16 -1 10 26 29 30 54 92 44
109 -9 13 -30 9 -46 -9z"/>
<path d="M1423 365 c-12 -8 -32 -32 -44 -52 -23 -37 -89 -110 -89 -98 0 4 5
15 11 26 12 24 -3 49 -32 49 -22 0 -66 -38 -73 -65 -10 -35 8 -49 60 -46 27 1
54 7 61 13 9 7 13 7 13 -2 0 -8 9 -11 25 -8 14 3 28 1 31 -3 8 -14 40 -10 54
6 9 11 16 12 25 5 7 -6 40 -9 74 -7 33 2 64 0 69 -5 10 -10 57 5 66 21 4 6 15
2 27 -10 13 -13 25 -17 37 -11 9 4 60 7 112 6 84 -2 98 0 118 19 20 19 31 57
15 57 -4 0 -17 -10 -29 -21 l-23 -21 6 21 c4 16 1 21 -14 21 -10 0 -25 -6 -32
-12 -10 -11 -11 -10 -6 3 16 42 -37 29 -83 -20 -13 -14 -19 -18 -12 -9 17 25
5 68 -20 68 -23 0 -88 -38 -109 -64 -19 -23 -34 -20 -21 4 24 44 -13 54 -47
13 -20 -26 -21 -26 -16 -5 4 17 1 22 -14 22 -10 0 -24 -5 -30 -11 -9 -9 -10
-7 -6 10 9 35 -31 26 -72 -16 l-35 -36 3 32 c2 18 8 36 13 39 21 15 54 66 54
83 0 24 -36 26 -67 4z"/>
</g>
</svg>
